<svg xmlns="http://www.w3.org/2000/svg" width="32.126" height="26.318" viewBox="0 0 32.126 26.318">
  <g id="Group_24176" data-name="Group 24176" transform="translate(-51.648 717.864) rotate(-150)">
    <g id="Group_24169" data-name="Group 24169" transform="translate(281.021 636.281)">
      <g id="Group_24168" data-name="Group 24168">
        <path id="Path_37461" data-name="Path 37461" d="M300.4,652.718c-6.238.177-12.478.313-18.719.216l.582,1.013a132.571,132.571,0,0,1,9.715-16.373h-1.491a40.638,40.638,0,0,0,4.528,8.094c1.746,2.4,4.593,4.607,5.593,7.414l.911-1.2c-4.3.318-8.674-1.5-12.744-2.671q-.112.826-.223,1.652c3.106.154,6.211.351,9.315.539v-1.615c-2.58.03-5.156.2-7.735.269a.62.62,0,0,0,0,1.239,38.591,38.591,0,0,0,7.6.2l-.721-.947-.3.379a.759.759,0,0,0,.153,1.186,3.413,3.413,0,0,0,3.532.026.778.778,0,0,0,0-1.335,4.957,4.957,0,0,0-4.9.239.787.787,0,0,0-.157,1.221,3.369,3.369,0,0,0,4.817.171.8.8,0,0,0-.16-1.242c-1.637-1.126-3.511-1.13-5.438-1.171-2.723-.058-5.44.039-8.155.249-1.04.08-1.064,1.688,0,1.64q.884-.038,1.767-.085c1.037-.053,1.048-1.659,0-1.622q-.883.028-1.767.067v1.64c2.143-.169,4.287-.272,6.437-.277,2.077,0,4.552-.256,6.358.924q-.08-.621-.16-1.242a1.723,1.723,0,0,1-2.6-.153q-.078.611-.157,1.221a3.3,3.3,0,0,1,3.335-.247V650.8l-1.989.005q.076.593.153,1.186a1.565,1.565,0,0,0,.676-1.05.753.753,0,0,0-.722-.947,41.164,41.164,0,0,1-7.6.062V651.3c2.579.011,5.156.131,7.735.108a.808.808,0,0,0,0-1.615c-3.106-.194-6.212-.378-9.315-.6-.971-.071-1.105,1.386-.224,1.651,4.3,1.293,8.646,2.959,13.191,2.938a.953.953,0,0,0,.91-1.2c-.891-2.907-3.5-4.906-5.282-7.267a48.947,48.947,0,0,1-5.169-8.611.872.872,0,0,0-1.491,0,147.226,147.226,0,0,0-9.386,16.565.681.681,0,0,0,.581,1.013c6.251.048,12.488-.093,18.719-.613.6-.05.62-.968,0-.95Z" transform="translate(-281.021 -636.281)" fill="#2962ff"/>
      </g>
    </g>
    <g id="Group_24171" data-name="Group 24171" transform="translate(283.227 639.739)">
      <g id="Group_24170" data-name="Group 24170">
        <path id="Path_37462" data-name="Path 37462" d="M286.5,649.8c1.491.183,2.982.356,4.478.491v-1.241c-.989.1-5.457.137-4.616,2.046.4.9,2.136,1.01,2.9,1.166a34.665,34.665,0,0,0,4.71.6v-1.3c-2.317.153-4.559-.627-6.88-.327a.635.635,0,0,0-.168,1.241,8.956,8.956,0,0,0,6.5.1.669.669,0,0,0,0-1.278c-2.363-.646-4.808.111-7.151-.57l.161,1.23q2.421-1.122,4.853-2.219c.811-.368.105-1.525-.693-1.186q-3.166,1.345-6.327,2.7l.724,1.239q1.674-1.286,3.347-2.574a.729.729,0,0,0-.735-1.258,24.921,24.921,0,0,0-4.765,2.862.746.746,0,0,0,.373,1.376q2.036.023,4.072.039l-.2-1.449a18.243,18.243,0,0,1-4.453.6l.509,1.228,2.973-3.143c.545-.576-.18-1.641-.884-1.146l-1.53,1.074.889,1.152a31.1,31.1,0,0,0,4.093-6.152.751.751,0,0,0-1.3-.758,19.239,19.239,0,0,0-2.184,4.812.764.764,0,0,0,1.266.737,39.644,39.644,0,0,0,3.913-3.784l-1.273-.741q-.475,1.922-.949,3.844c-.174.7.751,1.343,1.279.745s1.681-2.328,2.24-2.177c.58.157,1.185,3.175,1.345,3.817l1.406-.593-2.513-4.638c-.473-.873-1.794-.1-1.33.777a14.743,14.743,0,0,0,5.814,5.977.776.776,0,0,0,.936-1.213q-2.555-2.613-4.987-5.338c-.587-.656-1.681.195-1.217.939,1,1.609,2.627,4.633,4.872,4.373a.788.788,0,0,0,.671-1.169c-1.284-2.415-3.825-3.672-5.256-5.958l-1.223.943,4.479,5.641c.546.687,1.735-.222,1.225-.945a29.048,29.048,0,0,0-2.889-3.525c-.778-.8-1.85-2.147-2.953-2.5-2.381-.756-2.171,4.018-2.155,5.229a.777.777,0,0,0,1.438.389,12.83,12.83,0,0,0,1.663-5.837.788.788,0,0,0-1.332-.552c-1.079,1.233-2.163,2.46-3.279,3.659l1.317.767a7.883,7.883,0,0,1,.885-2.394,6.662,6.662,0,0,1,.866-1.171q-.606-1.19-.208.146a37.086,37.086,0,0,0,1.134,5.65c.175.87,1.656.689,1.568-.212a21.691,21.691,0,0,0-1.354-5.788c-.258-.668-1.369-.85-1.546,0-.3,1.422-.178,7.173,2.751,5.521,2.5-1.412-.723-6.671-1.63-8.217a.82.82,0,0,0-1.4,0,7.509,7.509,0,0,0-1.027,3.364c-.068.874,1.1,1.012,1.518.411a10.9,10.9,0,0,0,1.854-3.707.824.824,0,0,0-1.366-.8,26.07,26.07,0,0,0-2.77,3.121l1.417.829,1.944-2.671c.627-.861-.8-1.671-1.422-.831l-.352.474c-.632.851.8,1.676,1.423.832l.351-.474-1.422-.831-1.94,2.673c-.626.862.791,1.655,1.417.829a23.518,23.518,0,0,1,2.509-2.793l-1.366-.8a9.761,9.761,0,0,1-1.684,3.32l1.517.411a5.685,5.685,0,0,1,.8-2.545h-1.4a20.848,20.848,0,0,1,1.93,4.2q.153.46.277.928-.142,1.067-.3.146c-.518-.682-.232-2.221-.076-2.971h-1.546a20.125,20.125,0,0,1,1.3,5.361l1.568-.212c-.38-1.882-.736-3.771-1.141-5.648-.148-.684-.24-1.545-1.105-1.625-1.9-.175-3.2,3.691-3.49,5.047-.156.727.752,1.377,1.317.766,1.113-1.2,2.193-2.434,3.268-3.67l-1.332-.552a10.93,10.93,0,0,1-1.434,5.058l1.437.39c-.016-1.013-.225-3.288.616-3.975l-.757.2c.967.139,2.184,1.706,2.818,2.373a26.535,26.535,0,0,1,2.431,2.983l1.225-.945L291.3,644.6c-.552-.695-1.686.2-1.223.943,1.431,2.284,3.989,3.574,5.259,5.957l.671-1.169c-1.449.169-2.942-2.653-3.534-3.6l-1.217.939q2.436,2.723,4.991,5.334l.936-1.213a13.237,13.237,0,0,1-5.265-5.419l-1.33.777q1.258,2.318,2.515,4.637a.773.773,0,0,0,1.406-.593c-.34-1.363-.908-4.471-2.377-5.129-1.553-.7-2.987,1.922-3.775,2.816l1.28.745q.471-1.923.942-3.846c.172-.7-.743-1.332-1.273-.742a39.6,39.6,0,0,1-3.906,3.791l1.265.737a17.873,17.873,0,0,1,2.02-4.457l-1.3-.758a29.5,29.5,0,0,1-3.834,5.872c-.495.589.159,1.67.889,1.152l1.525-1.081-.884-1.146-2.959,3.157a.728.728,0,0,0,.509,1.229,19.866,19.866,0,0,0,4.845-.62.742.742,0,0,0-.2-1.45q-2.036-.024-4.072-.041l.373,1.376a24.925,24.925,0,0,1,4.754-2.879l-.883-1.144q-1.668,1.294-3.334,2.591c-.7.543.194,1.421.87,1.127q3.15-1.371,6.3-2.752l-.693-1.186q-2.416,1.13-4.84,2.243c-.552.253-.353,1.078.161,1.23,2.36.7,4.8-.053,7.156.55V651.3a7.607,7.607,0,0,1-5.811-.044q-.084.621-.168,1.24c2.314-.245,4.559.562,6.88.366a.651.651,0,0,0,0-1.3,32.156,32.156,0,0,1-4.707-.539q-.483-.091-.962-.2-.561-.138.037-.166a7.728,7.728,0,0,1,2.633-.365.621.621,0,0,0,0-1.241c-1.493-.065-2.986-.129-4.478-.218-.635-.038-.6.895,0,.969Z" transform="translate(-281.935 -640.607)" fill="#2962ff"/>
      </g>
    </g>
    <g id="Group_24173" data-name="Group 24173" transform="translate(290.862 641.187)">
      <g id="Group_24172" data-name="Group 24172">
        <path id="Path_37463" data-name="Path 37463" d="M302.666,647.787a2.439,2.439,0,0,0,.815.433c.554.247.665.608.9,1.2a15.385,15.385,0,0,1,1.16,3.057l.093-.713.232-.232a.82.82,0,0,0-.37.911l.014.053a.875.875,0,0,0,.611.611l.067.017a.955.955,0,0,0,1.046-.425c.358-.544.121-1.022-.11-1.555-.352-.811-.714-1.619-1.095-2.418-.277-.583-.519-1.336-1.141-1.639-.6-.293-1.134.261-1.689,0-.427-.2-.926.327-.535.693Z" transform="translate(-302.525 -647.002)" fill="#2962ff"/>
      </g>
    </g>
    <g id="Group_24175" data-name="Group 24175" transform="translate(294.817 638.046)">
      <g id="Group_24174" data-name="Group 24174" transform="translate(0 0)">
        <path id="Path_37464" data-name="Path 37464" d="M311.8,647.931a29.712,29.712,0,0,0,7.281-2.624c2.1-.963,4.464-2.116,5.87-4.007.489-.658-.439-1.432-1.07-1.07-2.056,1.18-3.793,2.787-5.932,3.884-2.112,1.084-4.5,1.7-6.533,2.9a.5.5,0,0,0,.385.912Z" transform="translate(-311.168 -640.138)" fill="#2962ff"/>
      </g>
    </g>
  </g>
</svg>
