<svg xmlns="http://www.w3.org/2000/svg" xmlns:xlink="http://www.w3.org/1999/xlink" width="254.565" height="89.694" viewBox="0 0 254.565 89.694">
  <defs>
    <linearGradient id="linear-gradient" x1="0.5" x2="0.5" y2="1" gradientUnits="objectBoundingBox">
      <stop offset="0" stop-color="#2962ff"/>
      <stop offset="1" stop-color="#0f39ac"/>
    </linearGradient>
  </defs>
  <g id="Group_4941" data-name="Group 4941" transform="translate(-379.266 -338.962)">
    <g id="Group_4937" data-name="Group 4937" transform="translate(-465 46.02)">
      <path id="Path_14079" data-name="Path 14079" d="M3.62,0V-20.48H9.76v2.28a8.7,8.7,0,0,1,2.95-2.12,9.384,9.384,0,0,1,3.91-.8,8.173,8.173,0,0,1,4.15,1.03,7.38,7.38,0,0,1,2.81,2.86,8.628,8.628,0,0,1,1.02,4.27V0H18.46V-11.66a4.828,4.828,0,0,0-1.15-3.43,4.1,4.1,0,0,0-3.15-1.23,4.765,4.765,0,0,0-2.35.55,3.827,3.827,0,0,0-1.52,1.5,4.337,4.337,0,0,0-.53,2.15V0ZM41.26.64A12.252,12.252,0,0,1,35.31-.79a11.051,11.051,0,0,1-4.17-3.89,10.26,10.26,0,0,1-1.54-5.56,10.472,10.472,0,0,1,.87-4.26,10.709,10.709,0,0,1,2.43-3.47,11.3,11.3,0,0,1,3.62-2.32,11.823,11.823,0,0,1,4.46-.83,11.425,11.425,0,0,1,5.61,1.33,9.576,9.576,0,0,1,3.76,3.69,10.884,10.884,0,0,1,1.35,5.5q0,.26-.01.45t-.07.71H35.92a5.106,5.106,0,0,0,.71,2.72,4.85,4.85,0,0,0,1.99,1.81,6.5,6.5,0,0,0,2.98.65,6.2,6.2,0,0,0,2.83-.62A7.669,7.669,0,0,0,46.8-6.86l4.42,2.22A10.048,10.048,0,0,1,47.14-.76,12.353,12.353,0,0,1,41.26.64ZM36.14-12.84h9.52a4.6,4.6,0,0,0-.85-2.04,4.271,4.271,0,0,0-1.65-1.32,5.348,5.348,0,0,0-2.26-.46,5.69,5.69,0,0,0-2.36.46,4.01,4.01,0,0,0-1.64,1.32A4.286,4.286,0,0,0,36.14-12.84ZM63.94,0,53.18-20.48H60.2l5.6,12.3,5.28-12.3h4.18l5.28,12.3,5.6-12.3h7.02L82.4,0H78.28L73.16-11.82,68.04,0ZM101.2.64a12.435,12.435,0,0,1-4.65-.82,8.66,8.66,0,0,1-3.41-2.4L95.72-6.7A9.989,9.989,0,0,0,98.4-4.62a6.075,6.075,0,0,0,2.8.72,3.23,3.23,0,0,0,1.35-.26,2.118,2.118,0,0,0,.9-.75,2.081,2.081,0,0,0,.33-1.19,1.724,1.724,0,0,0-.45-1.26,4.216,4.216,0,0,0-1.37-.85q-.92-.39-2.38-.99a20.794,20.794,0,0,1-2.38-1.18,5.688,5.688,0,0,1-1.85-1.68,4.412,4.412,0,0,1-.71-2.58,5.527,5.527,0,0,1,1.06-3.35,7.026,7.026,0,0,1,2.93-2.27,10.644,10.644,0,0,1,4.31-.82,12.012,12.012,0,0,1,3.19.46,20.253,20.253,0,0,1,3.57,1.4l-2.1,3.94a8.807,8.807,0,0,0-4.62-1.66,3.005,3.005,0,0,0-1.82.5,1.509,1.509,0,0,0-.68,1.26,1.536,1.536,0,0,0,.71,1.25,7.6,7.6,0,0,0,1.74.94q1.03.41,1.97.75A17.694,17.694,0,0,1,107.63-11a5.192,5.192,0,0,1,1.87,1.77,5.45,5.45,0,0,1,.68,2.91,6.474,6.474,0,0,1-1.07,3.77,6.691,6.691,0,0,1-3.08,2.37A12.774,12.774,0,0,1,101.2.64ZM115.86,0V-20.48H122V0Zm3.08-24.74a3.533,3.533,0,0,1-1.83-.49,3.739,3.739,0,0,1-1.33-1.33,3.531,3.531,0,0,1-.5-1.84,3.428,3.428,0,0,1,.5-1.82,3.792,3.792,0,0,1,1.33-1.31,3.533,3.533,0,0,1,1.83-.49,3.481,3.481,0,0,1,1.82.49,3.735,3.735,0,0,1,1.31,1.31,3.481,3.481,0,0,1,.49,1.82,3.586,3.586,0,0,1-.49,1.84,3.685,3.685,0,0,1-1.31,1.33A3.481,3.481,0,0,1,118.94-24.74ZM129.24,0V-20.48h6.14v2.28a10.859,10.859,0,0,1,3.02-2.22,7.566,7.566,0,0,1,3.24-.7,8.593,8.593,0,0,1,4.26,1.06,6.205,6.205,0,0,1,2.72,2.84,11.073,11.073,0,0,1,3.22-2.92,7.818,7.818,0,0,1,3.94-.98,8.224,8.224,0,0,1,3.94.92,6.8,6.8,0,0,1,2.71,2.61,7.753,7.753,0,0,1,.99,3.99V0h-6.14V-11.92a4.523,4.523,0,0,0-1.04-3.15,3.565,3.565,0,0,0-2.78-1.15,4.312,4.312,0,0,0-2.11.5,3.794,3.794,0,0,0-1.43,1.34,3.464,3.464,0,0,0-.52,1.86V0h-6.14V-12.04a4.416,4.416,0,0,0-1.01-3.04,3.535,3.535,0,0,0-2.79-1.14,4.385,4.385,0,0,0-2.11.5,3.706,3.706,0,0,0-1.45,1.36,3.6,3.6,0,0,0-.52,1.9V0Z" transform="translate(934 337)" fill="#212121"/>
      <path id="Path_14080" data-name="Path 14080" d="M3.486-10.664,6.563-2.49l3.069-8.174h2.4V0H10.181V-3.516l.183-4.7L7.214,0H5.889L2.747-8.21,2.93-3.516V0H1.084V-10.664ZM20.8-.776a2.76,2.76,0,0,1-2.227.923,2.46,2.46,0,0,1-1.952-.754,3.209,3.209,0,0,1-.663-2.183V-7.925h1.78v5.112q0,1.509,1.252,1.509a1.759,1.759,0,0,0,1.75-.93V-7.925h1.78V0H20.839ZM28.172,0h-1.78V-11.25h1.78ZM34.29-9.851v1.926h1.4v1.318h-1.4v4.424a.974.974,0,0,0,.179.656.832.832,0,0,0,.641.2,2.742,2.742,0,0,0,.623-.073V-.022a4.383,4.383,0,0,1-1.172.168q-2.051,0-2.051-2.263v-4.49h-1.3V-7.925h1.3V-9.851ZM40.891,0h-1.78V-7.925h1.78ZM39-9.983a.945.945,0,0,1,.26-.681A.982.982,0,0,1,40-10.935a1,1,0,0,1,.747.271.937.937,0,0,1,.264.681.916.916,0,0,1-.264.67A1,1,0,0,1,40-9.045a.99.99,0,0,1-.743-.267A.923.923,0,0,1,39-9.983Zm12.717,6.1a4.718,4.718,0,0,1-.835,2.933A2.674,2.674,0,0,1,48.642.146,2.692,2.692,0,0,1,46.554-.71V3.047h-1.78V-7.925h1.641l.073.806a2.614,2.614,0,0,1,2.131-.952,2.7,2.7,0,0,1,2.274,1.08,4.844,4.844,0,0,1,.824,3Zm-1.772-.154a3.305,3.305,0,0,0-.472-1.882,1.536,1.536,0,0,0-1.351-.7,1.638,1.638,0,0,0-1.567.9V-2.2a1.653,1.653,0,0,0,1.582.923,1.534,1.534,0,0,0,1.329-.685A3.638,3.638,0,0,0,49.945-4.036ZM59.974-.776a2.76,2.76,0,0,1-2.227.923A2.46,2.46,0,0,1,55.8-.608a3.209,3.209,0,0,1-.663-2.183V-7.925h1.78v5.112q0,1.509,1.252,1.509a1.759,1.759,0,0,0,1.75-.93V-7.925H61.7V0H60.018ZM69.607-6.3a4.4,4.4,0,0,0-.725-.059,1.633,1.633,0,0,0-1.648.938V0h-1.78V-7.925h1.7l.044.886a2.005,2.005,0,0,1,1.787-1.033,1.666,1.666,0,0,1,.63.1ZM79.621-3.882a4.718,4.718,0,0,1-.835,2.933A2.674,2.674,0,0,1,76.545.146,2.692,2.692,0,0,1,74.457-.71V3.047h-1.78V-7.925h1.641l.073.806a2.614,2.614,0,0,1,2.131-.952A2.7,2.7,0,0,1,78.8-6.991a4.844,4.844,0,0,1,.824,3Zm-1.772-.154a3.305,3.305,0,0,0-.472-1.882,1.536,1.536,0,0,0-1.351-.7,1.638,1.638,0,0,0-1.567.9V-2.2a1.653,1.653,0,0,0,1.582.923,1.534,1.534,0,0,0,1.329-.685A3.638,3.638,0,0,0,77.849-4.036Zm4.894,0a4.673,4.673,0,0,1,.461-2.1A3.37,3.37,0,0,1,84.5-7.57a3.653,3.653,0,0,1,1.919-.5,3.462,3.462,0,0,1,2.6,1.033A4.062,4.062,0,0,1,90.1-4.3l.007.417a4.715,4.715,0,0,1-.45,2.095A3.329,3.329,0,0,1,88.372-.359a3.679,3.679,0,0,1-1.937.505A3.438,3.438,0,0,1,83.75-.97a4.278,4.278,0,0,1-1.007-2.977Zm1.78.154a3.193,3.193,0,0,0,.505,1.915,1.643,1.643,0,0,0,1.406.692,1.625,1.625,0,0,0,1.4-.7,3.527,3.527,0,0,0,.5-2.058,3.152,3.152,0,0,0-.516-1.9,1.649,1.649,0,0,0-1.4-.7,1.634,1.634,0,0,0-1.384.692A3.46,3.46,0,0,0,84.523-3.882ZM98.008-2.153a.807.807,0,0,0-.392-.725,4.167,4.167,0,0,0-1.3-.439A6.683,6.683,0,0,1,94.8-3.8a2.023,2.023,0,0,1-1.333-1.868,2.109,2.109,0,0,1,.864-1.714,3.417,3.417,0,0,1,2.2-.688,3.555,3.555,0,0,1,2.3.7A2.231,2.231,0,0,1,99.7-5.544H97.92A1.1,1.1,0,0,0,97.54-6.4a1.46,1.46,0,0,0-1.011-.341,1.577,1.577,0,0,0-.956.271.854.854,0,0,0-.37.725.721.721,0,0,0,.344.637,4.734,4.734,0,0,0,1.392.458,6.587,6.587,0,0,1,1.644.549,2.328,2.328,0,0,1,.886.765,1.952,1.952,0,0,1,.289,1.084,2.065,2.065,0,0,1-.886,1.732,3.779,3.779,0,0,1-2.322.663,4.1,4.1,0,0,1-1.736-.352,2.857,2.857,0,0,1-1.187-.967A2.288,2.288,0,0,1,93.2-2.5h1.729a1.254,1.254,0,0,0,.476.97,1.85,1.85,0,0,0,1.165.341,1.8,1.8,0,0,0,1.069-.267A.827.827,0,0,0,98.008-2.153Zm8.74,2.3A3.682,3.682,0,0,1,104-.919a3.866,3.866,0,0,1-1.051-2.838v-.22a4.755,4.755,0,0,1,.458-2.12A3.484,3.484,0,0,1,104.7-7.551a3.4,3.4,0,0,1,1.846-.52,3.11,3.11,0,0,1,2.5,1.033,4.367,4.367,0,0,1,.883,2.922V-3.4h-5.178a2.38,2.38,0,0,0,.656,1.553,1.968,1.968,0,0,0,1.447.571,2.41,2.41,0,0,0,1.992-.989l.959.916a3.2,3.2,0,0,1-1.271,1.1A3.978,3.978,0,0,1,106.748.146Zm-.212-6.79a1.5,1.5,0,0,0-1.183.513,2.657,2.657,0,0,0-.575,1.428h3.391v-.132a2.163,2.163,0,0,0-.476-1.351A1.487,1.487,0,0,0,106.535-6.643ZM127.574,0h-1.853l-4.753-7.566V0h-1.853V-10.664h1.853l4.768,7.6v-7.6h1.838Zm7.458.146a3.682,3.682,0,0,1-2.743-1.066,3.866,3.866,0,0,1-1.051-2.838v-.22A4.755,4.755,0,0,1,131.7-6.1a3.484,3.484,0,0,1,1.285-1.454,3.4,3.4,0,0,1,1.846-.52,3.11,3.11,0,0,1,2.5,1.033,4.367,4.367,0,0,1,.883,2.922V-3.4h-5.178a2.38,2.38,0,0,0,.656,1.553,1.968,1.968,0,0,0,1.447.571,2.41,2.41,0,0,0,1.992-.989l.959.916a3.2,3.2,0,0,1-1.271,1.1A3.978,3.978,0,0,1,135.032.146Zm-.212-6.79a1.5,1.5,0,0,0-1.183.513,2.657,2.657,0,0,0-.575,1.428h3.391v-.132a2.163,2.163,0,0,0-.476-1.351A1.487,1.487,0,0,0,134.82-6.643ZM148.5-2.454l1.26-5.471H151.5L149.338,0h-1.465l-1.7-5.442L144.5,0h-1.465l-2.168-7.925h1.736l1.282,5.413,1.626-5.413h1.34Zm10.578.3a.807.807,0,0,0-.392-.725,4.167,4.167,0,0,0-1.3-.439,6.683,6.683,0,0,1-1.516-.483,2.023,2.023,0,0,1-1.333-1.868,2.109,2.109,0,0,1,.864-1.714,3.417,3.417,0,0,1,2.2-.688,3.555,3.555,0,0,1,2.3.7,2.231,2.231,0,0,1,.875,1.824h-1.78a1.1,1.1,0,0,0-.381-.853,1.46,1.46,0,0,0-1.011-.341,1.577,1.577,0,0,0-.956.271.854.854,0,0,0-.37.725.721.721,0,0,0,.344.637,4.734,4.734,0,0,0,1.392.458,6.587,6.587,0,0,1,1.644.549,2.328,2.328,0,0,1,.886.765,1.952,1.952,0,0,1,.289,1.084,2.065,2.065,0,0,1-.886,1.732,3.779,3.779,0,0,1-2.322.663,4.1,4.1,0,0,1-1.736-.352,2.857,2.857,0,0,1-1.187-.967,2.288,2.288,0,0,1-.425-1.326H156a1.254,1.254,0,0,0,.476.97,1.85,1.85,0,0,0,1.165.341,1.8,1.8,0,0,0,1.069-.267A.827.827,0,0,0,159.081-2.153Z" transform="translate(938 360)" fill="#707070"/>
    </g>
    <g id="Group_4938" data-name="Group 4938" transform="translate(-446.734 55.962)">
      <path id="Polygon_1" data-name="Polygon 1" d="M48.819,0A9,9,0,0,1,56.6,4.481l12.774,22a9,9,0,0,1,0,9.038l-12.774,22A9,9,0,0,1,48.819,62H23.181A9,9,0,0,1,15.4,57.519l-12.774-22a9,9,0,0,1,0-9.038l12.774-22A9,9,0,0,1,23.181,0Z" transform="translate(857 283) rotate(30)" fill="url(#linear-gradient)"/>
      <path id="Path_14081" data-name="Path 14081" d="M11.3-26.055l1.1.142,1.586-.2v1.982a1,1,0,0,0-.481.765,1.366,1.366,0,0,0-.793,1.218,1.718,1.718,0,0,0,.057.51l-.2,1.1L10.45-16.709l-.312,1.869-.51.68.057,1.444L8.864-8.864a.326.326,0,0,0-.113.227.478.478,0,0,0,.283.4l1.3-1.614.736-.4.595-1.359,1.1-.793L14.1-14.443a4.764,4.764,0,0,1,2.322-1.5,2.542,2.542,0,0,1,.85-1.388,3.8,3.8,0,0,0,.708-.51q.595-.481,1.1-.821l-.113-.2q2.039-1.1,2.011-1.5a3.6,3.6,0,0,0,1.869-1.444A7.207,7.207,0,0,1,25.8-23.789a3.05,3.05,0,0,0,.75-.269,3.5,3.5,0,0,1,.892-.3A1.88,1.88,0,0,1,29-25.12q.566,0,.566.821l.085,1.841-.368,1.048-.057,1.331L28.6-18.493,27.952-14.5a.529.529,0,0,1-.4.4l.34,1.274-.4.708.68.4-.227.368a4.883,4.883,0,0,0-.566.906,3.61,3.61,0,0,1,.453.538l-.17,2.266h.113q.283,2.974.651,3L29.651-5.1A5.748,5.748,0,0,1,31.832-7.08a1.373,1.373,0,0,0,.765-.34q.453,0,.566-.283a3.361,3.361,0,0,1,.906-.411,10.751,10.751,0,0,0,1.671-.75l.963.227a1.365,1.365,0,0,1,.425.623q-.765.935-1.657,2.237t-1.26,1.3h-.793l-.595.878-1.444.283L30.1-1.671l-1.048.283L25.063,1.388,23.846,2.605l-.17-1.048-1.048.057L22.26-.113l-.566-.453-.057-1.982-.283-1.218q0-1.529.566-1.614v-.142l.34-1.331L22.2-8.694l.651-1.274-.453-.538.906-1.048.057-2.181.481-1.048-.821-1.1.227-.057v-.821l.538-.283v-.17l-.057-.481v-.113a2.412,2.412,0,0,0-1.274-.453l-1.359,1.1-1.9.878-2.775,3.115L16-12.518q-1.246,1.246-1.218,1.388l-.566.4a4.838,4.838,0,0,0-.113.765L13-8.694,11.838-7.023,9.855-3.88H9.742l-.34.793L8.864-1.218A24.266,24.266,0,0,0,6.74.765L5.806.991l-.595.991-.4.057-.765-.17a3.594,3.594,0,0,0-1.331.283L3.313.991,3.54-.057A38.48,38.48,0,0,0,5.211-4.928h.113v-.821L5.919-7.42l.227-1.444h.113L5.976-9.8l.283-1.756.2-.623A5.771,5.771,0,0,1,7.25-13.4l-.17-.765.34-.51a7.154,7.154,0,0,1-.51-2.492l.17-.935-.113-.17v-.34a3.059,3.059,0,0,0-1.756-.538,1.544,1.544,0,0,0-.666.17,4.082,4.082,0,0,0-1.062,1.529,22.374,22.374,0,0,0-2.152.793l-.51-1.1a.916.916,0,0,1,.3-.736.852.852,0,0,1,.5-.255H2.1l.453-.623.878-.227-.34-.227v-.312l1.076.17L5.324-21.24,6.967-22.2l.283-.368h.17l-.283-.4a.869.869,0,0,0,.34.113q.227,0,.227-.51A3.352,3.352,0,0,1,9.8-24.7a1.358,1.358,0,0,1,1.274-.935v-.283Z" transform="translate(854.179 339.111)" fill="#fff"/>
    </g>
  </g>
</svg>
