<svg xmlns="http://www.w3.org/2000/svg" xmlns:xlink="http://www.w3.org/1999/xlink" width="191.76" height="61" viewBox="0 0 191.76 61">
  <defs>
    <clipPath id="clip-path">
      <rect id="Rectangle_909" data-name="Rectangle 909" width="56" height="61" transform="translate(-0.382 0.361)" fill="#fff" stroke="#707070" stroke-width="1"/>
    </clipPath>
    <linearGradient id="linear-gradient" x1="0.5" x2="0.5" y2="1" gradientUnits="objectBoundingBox">
      <stop offset="0" stop-color="#2962ff"/>
      <stop offset="1" stop-color="#0f39ac"/>
    </linearGradient>
  </defs>
  <g id="Group_4942" data-name="Group 4942" transform="translate(-290.618 -238.361)">
    <g id="Group_4936" data-name="Group 4936" transform="translate(360.547 242.38)">
      <path id="Path_14079" data-name="Path 14079" d="M3.62-7.608V-23.222H8.3v1.738A6.632,6.632,0,0,1,10.55-23.1a7.155,7.155,0,0,1,2.981-.61,6.231,6.231,0,0,1,3.164.785,5.627,5.627,0,0,1,2.142,2.18,6.578,6.578,0,0,1,.778,3.255v9.881H14.934V-16.5a3.681,3.681,0,0,0-.877-2.615,3.128,3.128,0,0,0-2.4-.938,3.633,3.633,0,0,0-1.792.419,2.918,2.918,0,0,0-1.159,1.144,3.307,3.307,0,0,0-.4,1.639v9.24Zm28.7.488A9.341,9.341,0,0,1,27.78-8.21,8.425,8.425,0,0,1,24.6-11.176a7.822,7.822,0,0,1-1.174-4.239,7.983,7.983,0,0,1,.663-3.248,8.164,8.164,0,0,1,1.853-2.646,8.615,8.615,0,0,1,2.76-1.769,9.014,9.014,0,0,1,3.4-.633A8.71,8.71,0,0,1,36.38-22.7a7.3,7.3,0,0,1,2.867,2.813,8.3,8.3,0,0,1,1.029,4.193q0,.2-.008.343t-.053.541H28.245a3.893,3.893,0,0,0,.541,2.074,3.7,3.7,0,0,0,1.517,1.38,4.954,4.954,0,0,0,2.272.5,4.73,4.73,0,0,0,2.158-.473,5.846,5.846,0,0,0,1.807-1.51l3.37,1.693A7.66,7.66,0,0,1,36.8-8.187,9.418,9.418,0,0,1,32.317-7.12ZM28.413-17.4h7.258a3.506,3.506,0,0,0-.648-1.555,3.256,3.256,0,0,0-1.258-1.006,4.077,4.077,0,0,0-1.723-.351,4.338,4.338,0,0,0-1.8.351,3.057,3.057,0,0,0-1.25,1.006A3.268,3.268,0,0,0,28.413-17.4ZM49.608-7.608,41.4-23.222h5.352l4.269,9.378,4.025-9.378h3.187l4.025,9.378,4.269-9.378h5.352l-8.2,15.614H60.541l-3.9-9.012-3.9,9.012Zm28.407.488a9.481,9.481,0,0,1-3.545-.625,6.6,6.6,0,0,1-2.6-1.83l1.967-3.141A7.616,7.616,0,0,0,75.88-11.13a4.631,4.631,0,0,0,2.135.549,2.463,2.463,0,0,0,1.029-.2,1.615,1.615,0,0,0,.686-.572,1.586,1.586,0,0,0,.252-.907,1.315,1.315,0,0,0-.343-.961,3.214,3.214,0,0,0-1.044-.648q-.7-.3-1.815-.755a15.854,15.854,0,0,1-1.815-.9,4.337,4.337,0,0,1-1.41-1.281,3.364,3.364,0,0,1-.541-1.967,4.214,4.214,0,0,1,.808-2.554,5.357,5.357,0,0,1,2.234-1.731,8.115,8.115,0,0,1,3.286-.625,9.158,9.158,0,0,1,2.432.351A15.441,15.441,0,0,1,84.5-22.261l-1.6,3a6.714,6.714,0,0,0-3.522-1.266,2.291,2.291,0,0,0-1.388.381,1.15,1.15,0,0,0-.518.961,1.171,1.171,0,0,0,.541.953,5.792,5.792,0,0,0,1.327.717q.785.313,1.5.572a13.49,13.49,0,0,1,2.081.945,3.959,3.959,0,0,1,1.426,1.349,4.155,4.155,0,0,1,.518,2.219,4.935,4.935,0,0,1-.816,2.874A5.1,5.1,0,0,1,81.7-7.745,9.739,9.739,0,0,1,78.015-7.12Zm11.177-.488V-23.222h4.681V-7.608ZM91.54-26.47a2.694,2.694,0,0,1-1.4-.374,2.851,2.851,0,0,1-1.014-1.014,2.692,2.692,0,0,1-.381-1.4,2.613,2.613,0,0,1,.381-1.388,2.891,2.891,0,0,1,1.014-1,2.694,2.694,0,0,1,1.4-.374,2.654,2.654,0,0,1,1.388.374,2.848,2.848,0,0,1,1,1A2.654,2.654,0,0,1,94.3-29.26a2.734,2.734,0,0,1-.374,1.4,2.809,2.809,0,0,1-1,1.014A2.654,2.654,0,0,1,91.54-26.47ZM99.392-7.608V-23.222h4.681v1.738a8.279,8.279,0,0,1,2.3-1.693,5.769,5.769,0,0,1,2.47-.534,6.551,6.551,0,0,1,3.248.808,4.731,4.731,0,0,1,2.074,2.165,8.442,8.442,0,0,1,2.455-2.226,5.96,5.96,0,0,1,3-.747,6.27,6.27,0,0,1,3,.7,5.187,5.187,0,0,1,2.066,1.99,5.911,5.911,0,0,1,.755,3.042V-7.608H120.77V-16.7a3.448,3.448,0,0,0-.793-2.4,2.718,2.718,0,0,0-2.119-.877,3.287,3.287,0,0,0-1.609.381,2.892,2.892,0,0,0-1.09,1.022,2.641,2.641,0,0,0-.4,1.418v9.545h-4.681v-9.179a3.367,3.367,0,0,0-.77-2.318,2.7,2.7,0,0,0-2.127-.869,3.343,3.343,0,0,0-1.609.381,2.825,2.825,0,0,0-1.105,1.037,2.746,2.746,0,0,0-.4,1.449v9.5Z" transform="translate(-3.62 32.02)" fill="#f5f5f5"/>
      <path id="Path_14080" data-name="Path 14080" d="M2.916-10.8,5.261-4.572,7.6-10.8H9.426v8.13H8.019v-2.68l.14-3.585-2.4,6.265H4.747l-2.4-6.26.14,3.579v2.68H1.084V-10.8Zm13.2,7.538a2.1,2.1,0,0,1-1.7.7,1.876,1.876,0,0,1-1.488-.575A2.447,2.447,0,0,1,12.421-4.8V-8.715h1.357v3.9q0,1.15.955,1.15a1.341,1.341,0,0,0,1.335-.709V-8.715h1.357v6.042H16.145Zm5.624.592H20.379V-11.25h1.357Zm4.664-7.51v1.469h1.067V-7.71H26.4v3.373a.743.743,0,0,0,.137.5.634.634,0,0,0,.489.154A2.09,2.09,0,0,0,27.5-3.74v1.05a3.342,3.342,0,0,1-.893.128q-1.564,0-1.564-1.725V-7.71h-.994V-8.715h.994v-1.469Zm5.033,7.51H30.076V-8.715h1.357Zm-1.441-7.611a.72.72,0,0,1,.2-.519.749.749,0,0,1,.567-.207.758.758,0,0,1,.57.207.715.715,0,0,1,.2.519.7.7,0,0,1-.2.511.764.764,0,0,1-.57.2.755.755,0,0,1-.567-.2A.7.7,0,0,1,29.992-10.284Zm9.7,4.651A3.6,3.6,0,0,1,39.051-3.4a2.039,2.039,0,0,1-1.709.835,2.052,2.052,0,0,1-1.591-.653V-.35H34.394V-8.715h1.251L35.7-8.1a1.993,1.993,0,0,1,1.625-.726A2.06,2.06,0,0,1,39.059-8a3.693,3.693,0,0,1,.628,2.287ZM38.336-5.75a2.52,2.52,0,0,0-.36-1.435,1.171,1.171,0,0,0-1.03-.53,1.249,1.249,0,0,0-1.195.687v2.68a1.26,1.26,0,0,0,1.206.7,1.17,1.17,0,0,0,1.013-.522A2.774,2.774,0,0,0,38.336-5.75Zm7.646,2.485a2.1,2.1,0,0,1-1.7.7A1.876,1.876,0,0,1,42.8-3.136,2.447,2.447,0,0,1,42.291-4.8V-8.715h1.357v3.9q0,1.15.955,1.15a1.341,1.341,0,0,0,1.335-.709V-8.715h1.357v6.042H46.015Zm7.344-4.21a3.358,3.358,0,0,0-.553-.045,1.245,1.245,0,0,0-1.256.715v4.132H50.16V-8.715h1.3l.034.676a1.529,1.529,0,0,1,1.362-.787,1.27,1.27,0,0,1,.48.078ZM60.96-5.633A3.6,3.6,0,0,1,60.324-3.4a2.039,2.039,0,0,1-1.709.835,2.052,2.052,0,0,1-1.591-.653V-.35H55.667V-8.715h1.251l.056.614A1.993,1.993,0,0,1,58.6-8.827,2.06,2.06,0,0,1,60.332-8a3.693,3.693,0,0,1,.628,2.287ZM59.609-5.75a2.52,2.52,0,0,0-.36-1.435,1.171,1.171,0,0,0-1.03-.53,1.249,1.249,0,0,0-1.195.687v2.68a1.26,1.26,0,0,0,1.206.7,1.17,1.17,0,0,0,1.013-.522A2.774,2.774,0,0,0,59.609-5.75Zm3.731,0a3.563,3.563,0,0,1,.352-1.6,2.569,2.569,0,0,1,.988-1.094,2.785,2.785,0,0,1,1.463-.383,2.639,2.639,0,0,1,1.985.787,3.1,3.1,0,0,1,.824,2.088l.006.318a3.6,3.6,0,0,1-.343,1.6,2.538,2.538,0,0,1-.983,1.089,2.805,2.805,0,0,1-1.477.385,2.621,2.621,0,0,1-2.047-.852,3.261,3.261,0,0,1-.768-2.27Zm1.357.117a2.435,2.435,0,0,0,.385,1.46,1.253,1.253,0,0,0,1.072.528,1.239,1.239,0,0,0,1.069-.536,2.689,2.689,0,0,0,.383-1.569A2.4,2.4,0,0,0,67.213-7.2a1.257,1.257,0,0,0-1.069-.536,1.246,1.246,0,0,0-1.055.528A2.638,2.638,0,0,0,64.7-5.633ZM74.979-4.315a.615.615,0,0,0-.3-.553,3.177,3.177,0,0,0-.991-.335,5.1,5.1,0,0,1-1.156-.369A1.543,1.543,0,0,1,71.517-7,1.608,1.608,0,0,1,72.176-8.3a2.6,2.6,0,0,1,1.675-.525A2.71,2.71,0,0,1,75.6-8.29a1.7,1.7,0,0,1,.667,1.39H74.912a.836.836,0,0,0-.29-.651,1.113,1.113,0,0,0-.771-.26,1.2,1.2,0,0,0-.729.207.651.651,0,0,0-.282.553.55.55,0,0,0,.262.486,3.609,3.609,0,0,0,1.061.349,5.022,5.022,0,0,1,1.254.419,1.775,1.775,0,0,1,.676.584,1.488,1.488,0,0,1,.221.826,1.574,1.574,0,0,1-.676,1.321,2.881,2.881,0,0,1-1.77.505,3.124,3.124,0,0,1-1.323-.268,2.178,2.178,0,0,1-.9-.737,1.745,1.745,0,0,1-.324-1.011h1.318a.956.956,0,0,0,.363.74,1.41,1.41,0,0,0,.888.26,1.372,1.372,0,0,0,.815-.2A.631.631,0,0,0,74.979-4.315Zm6.663,1.753a2.807,2.807,0,0,1-2.091-.812,2.947,2.947,0,0,1-.8-2.164v-.168A3.625,3.625,0,0,1,79.1-7.322a2.656,2.656,0,0,1,.98-1.108,2.591,2.591,0,0,1,1.407-.4,2.371,2.371,0,0,1,1.907.787,3.329,3.329,0,0,1,.673,2.228v.547H80.118a1.814,1.814,0,0,0,.5,1.184,1.5,1.5,0,0,0,1.1.436A1.837,1.837,0,0,0,83.239-4.4l.731.7A2.443,2.443,0,0,1,83-2.86,3.033,3.033,0,0,1,81.642-2.561ZM81.48-7.738a1.143,1.143,0,0,0-.9.391,2.026,2.026,0,0,0-.438,1.089h2.585v-.1a1.649,1.649,0,0,0-.363-1.03A1.134,1.134,0,0,0,81.48-7.738ZM97.52-2.673H96.107L92.483-8.441v5.768H91.07V-10.8h1.413l3.635,5.791V-10.8h1.4Zm5.686.112a2.807,2.807,0,0,1-2.091-.812,2.947,2.947,0,0,1-.8-2.164v-.168a3.625,3.625,0,0,1,.349-1.617,2.656,2.656,0,0,1,.98-1.108,2.591,2.591,0,0,1,1.407-.4,2.371,2.371,0,0,1,1.907.787,3.329,3.329,0,0,1,.673,2.228v.547h-3.948a1.814,1.814,0,0,0,.5,1.184,1.5,1.5,0,0,0,1.1.436A1.837,1.837,0,0,0,104.8-4.4l.731.7a2.443,2.443,0,0,1-.969.84A3.033,3.033,0,0,1,103.206-2.561Zm-.162-5.176a1.143,1.143,0,0,0-.9.391,2.026,2.026,0,0,0-.438,1.089h2.585v-.1a1.649,1.649,0,0,0-.363-1.03A1.134,1.134,0,0,0,103.044-7.738Zm10.432,3.194.96-4.171h1.323l-1.647,6.042H113l-1.3-4.149-1.273,4.149H109.31l-1.653-6.042h1.323l.977,4.127,1.24-4.127h1.022Zm8.065.229a.615.615,0,0,0-.3-.553,3.177,3.177,0,0,0-.991-.335,5.1,5.1,0,0,1-1.156-.369A1.543,1.543,0,0,1,118.079-7a1.608,1.608,0,0,1,.659-1.307,2.6,2.6,0,0,1,1.675-.525,2.71,2.71,0,0,1,1.751.536,1.7,1.7,0,0,1,.667,1.39h-1.357a.836.836,0,0,0-.29-.651,1.113,1.113,0,0,0-.771-.26,1.2,1.2,0,0,0-.729.207.651.651,0,0,0-.282.553.55.55,0,0,0,.262.486,3.609,3.609,0,0,0,1.061.349,5.022,5.022,0,0,1,1.254.419,1.775,1.775,0,0,1,.676.584,1.488,1.488,0,0,1,.221.826,1.574,1.574,0,0,1-.676,1.321,2.881,2.881,0,0,1-1.77.505,3.124,3.124,0,0,1-1.323-.268,2.178,2.178,0,0,1-.9-.737,1.745,1.745,0,0,1-.324-1.011H119.2a.956.956,0,0,0,.363.74,1.41,1.41,0,0,0,.888.26,1.372,1.372,0,0,0,.815-.2A.631.631,0,0,0,121.541-4.315Z" transform="translate(-1.084 44.62)" fill="#f5f5f5"/>
    </g>
    <g id="Mask_Group_1" data-name="Mask Group 1" transform="translate(291 238)" clip-path="url(#clip-path)">
      <g id="Group_4940" data-name="Group 4940" transform="translate(-13.04 -8.693)">
        <path id="Polygon_1" data-name="Polygon 1" d="M41.763,0a9,9,0,0,1,7.783,4.481L59.968,22.43a9,9,0,0,1,0,9.038L49.546,49.418A9,9,0,0,1,41.763,53.9H20.829a9,9,0,0,1-7.783-4.481L2.624,31.469a9,9,0,0,1,0-9.038L13.046,4.481A9,9,0,0,1,20.829,0Z" transform="translate(26.949 0) rotate(30)" fill="url(#linear-gradient)"/>
        <path id="Path_14081" data-name="Path 14081" d="M9.931-26.062l.96.123,1.379-.172v1.723a.873.873,0,0,0-.419.665,1.187,1.187,0,0,0-.689,1.059,1.494,1.494,0,0,0,.049.443l-.172.96L9.192-17.938l-.271,1.625-.443.591.049,1.256-.714,3.348a.284.284,0,0,0-.1.2.415.415,0,0,0,.246.345l1.133-1.4.64-.345.517-1.182.96-.689,1.157-1.773a4.142,4.142,0,0,1,2.019-1.3,2.21,2.21,0,0,1,.739-1.206,3.3,3.3,0,0,0,.615-.443q.517-.419.96-.714l-.1-.172q1.773-.96,1.748-1.3a3.131,3.131,0,0,0,1.625-1.256,6.266,6.266,0,0,1,2.56-1.723,2.651,2.651,0,0,0,.652-.234,3.043,3.043,0,0,1,.776-.259,1.634,1.634,0,0,1,1.354-.665q.492,0,.492.714l.074,1.6-.32.911-.049,1.157-.542,1.379-.566,3.471a.459.459,0,0,1-.345.345l.3,1.108-.345.615.591.345-.2.32a4.245,4.245,0,0,0-.492.788,3.138,3.138,0,0,1,.394.468l-.148,1.97h.1q.246,2.585.566,2.61l1.059-.394a5,5,0,0,1,1.9-1.723,1.193,1.193,0,0,0,.665-.3q.394,0,.492-.246a2.922,2.922,0,0,1,.788-.357,9.346,9.346,0,0,0,1.453-.652l.837.2a1.186,1.186,0,0,1,.369.542q-.665.812-1.44,1.945T29.848-7.3h-.689l-.517.763-1.256.246L26.278-4.864l-.911.246L21.9-2.205,20.837-1.147l-.148-.911-.911.049-.32-1.5L18.966-3.9l-.049-1.723-.246-1.059q0-1.329.492-1.4v-.123l.3-1.157-.049-1.6.566-1.108-.394-.468.788-.911.049-1.9.419-.911-.714-.96.2-.049v-.714l.468-.246v-.148l-.049-.419v-.1a2.1,2.1,0,0,0-1.108-.394l-1.182.96-1.65.763L14.387-14.86l-.369.566q-1.083,1.083-1.059,1.206l-.492.345a4.206,4.206,0,0,0-.1.665l-.96,1.108L10.4-9.518,8.675-6.785h-.1l-.3.689L7.813-4.47A21.1,21.1,0,0,0,5.967-2.747l-.812.2-.517.862-.345.049-.665-.148a3.124,3.124,0,0,0-1.157.246L2.988-2.55l.2-.911A33.452,33.452,0,0,0,4.637-7.7h.1V-8.41l.517-1.453.2-1.256h.1L5.3-11.93l.246-1.526L5.721-14a5.017,5.017,0,0,1,.689-1.059l-.148-.665.3-.443a6.22,6.22,0,0,1-.443-2.167l.148-.812-.1-.148v-.3a2.659,2.659,0,0,0-1.526-.468,1.343,1.343,0,0,0-.579.148,3.549,3.549,0,0,0-.923,1.329,19.45,19.45,0,0,0-1.871.689l-.443-.96a.8.8,0,0,1,.259-.64.74.74,0,0,1,.431-.222h.419l.394-.542.763-.2-.3-.2v-.271l.936.148,1.009-1.108,1.428-.837.246-.32h.148l-.246-.345a.756.756,0,0,0,.3.1q.2,0,.2-.443A2.914,2.914,0,0,1,8.626-24.88a1.181,1.181,0,0,1,1.108-.812v-.246Z" transform="translate(24.389 52.191)" fill="#fff"/>
      </g>
    </g>
  </g>
</svg>
